The Twilight Saga New Moon (2009) BDRip XviD-MAX

Format                           : AVI 
Format/Info                      : Audio Video Interleave 
Format profile                   : OpenDML
File size                        : 1.22 GiB
Duration                         : 2h 10mn
Overall bit rate                 : 1 339 Kbps
Writing application              : VirtualDubMod 1.5.10.2 (build 2542/release)
Writing library                  : VirtualDubMod build 2542/release
Original source form             : MAX TORRENTZ
Copyright                        : SIGISMUNT

Video
ID                               : 0
Format                           : MPEG-4 Visual
Format profile                   : AdvancedSimple@L5 
Format settings, BVOP            : Yes
Format settings, QPel            : No
Format settings, GMC             : No warppoints
Format settings, Matrix          : Default (H.263)
Codec ID                         : XVID
Codec ID/Hint                    : XviD
Duration                         : 2h 10mn
Bit rate                         : 1 139 Kbps
Width                            : 720 pixels
Height                           : 304 pixels
Display aspect ratio             : 2.35:1
Frame rate                       : 23.976 fps
Resolution                       : 24 bits
Colorimetry                      : 4:2:0
Scan type                        : Progressive
Bits/(Pixel*Frame)               : 0.217
Stream size                      : 1.03 GiB (85%)
Writing library                  : XviD 1.3.0.dev55

Audio
ID                               : 1
Format                           : MPEG Audio
Format version                   : Version 1
Format profile                   : Layer 3
Codec ID                         : 55
Codec ID/Hint                    : MP3
Duration                         : 2h 10mn
Bit rate mode                    : Constant
Bit rate                         : 192 Kbps
Channel(s)                       : 2 channels
Sampling rate                    : 48.0 KHz
Resolution                       : 16 bits
Stream size                      : 179 MiB (14%)
Alignment                        : Aligned on interleaves
Interleave, duration             : 24 ms (0.58 video frame)
Interleave, preload duration     : 192 ms
Writing library                  : LAME3.98 (alpha)
 
ENCODE NOTE: Original BluRay AC3 source (perfect sync , perfect a/v quality not fussy or pixelated as dvdrips)

Previous Encode got stuck at 99.8% due a hdd seed server error , sorry for that , get this , enjoy
 
http://www.imdb.com/title/tt1259571/

Screens:
 
http://www.postimg.com/image/12000/11818.jpg
 
http://www.postimg.com/image/12000/11819.jpg
 
http://www.postimg.com/image/12000/11820.jpg
 
http://www.postimg.com/image/12000/11821.jpg
 
http://www.postimg.com/image/12000/11822.jpg

ScreenCaps:
 
http://www.postimg.com/image/12000/11823.jpg

The Twilight Saga New Moon (2009) BDRip XviD-MAX Torrent Free Download
 
http://thepiratebay.org/user/extremezone/0/7